{"title":"004_Enas vlakas kai misos (1959) (Greek movie).mp4","uid":9679139,"size":817654995,"categoryP":"video","categoryS":"movies","magnet":"?xt=urn:btih:d6bce3396d549109189f1e3f5d2d2b145abcc195&amp;dn=004_Enas+vlakas+kai+misos+%281959%29+%28Greek+movie%29.mp4&amp;tr=udp%3A%2F%2Ftracker.openbittorrent.com%3A80&amp;tr=udp%3A%2F%2Fopen.demonii.com%3A1337&amp;tr=udp%3A%2F%2Ftracker.coppersurfer.tk%3A6969&amp;tr=udp%3A%2F%2Fexodus.desync.com%3A6969","seeders":1,"leechers":1,"uploader":"michel_greec","files":-1,"time":1393630048,"description":"Apexthanomai ta Greeklish alla dystyxos den ginetai alios.\nO Sothrhs enas agnooymenos naftikos pou eixe skhnothethsei ton pnigmo tou me skopo na eispraksei thn asfaleia zohs, epistrefei sto spiti tou, ena xrono meta ton &quot;thanato&quot; tou. En to metaksy, h gohteftikh gynaika tou Ourania, prokeimenou na ksefortothei ton antra ths kai na eispraksei h idia thn asfaleia, prospathei na peisei ton erotevmeno mazi ths THoma na skotosei ton Sothrh. 004_Enas vlakas kai misos.(1959)\n\n\nComplete name                            : 004_Enas vlakas kai misos (1959).mp4\nFormat                                   : MPEG-4\nFormat profile                           : Base Media\nCodec ID                                 : isom\nFile size                                : 780 MiB\nDuration                                 : 1h 18mn\nOverall bit rate mode                    : Variable\nOverall bit rate                         : 1 396 Kbps\nWriting application                      : Lavf52.94.0\n\nVideo\n================================================================\nID                                       : 1\nFormat                                   : AVC\nFormat/Info                              : Advanced Video Codec\nFormat profile                           : &lt;a class=&quot;__cf_email__&quot; href=&quot;/cdn-cgi/l/email-protection&quot; data-cfemail=&quot;3c715d55527c700f120d&quot;&gt;[email&amp;#160;protected]&lt;/a&gt;&lt;script cf-hash='f9e31' type=&quot;text/javascript&quot;&gt;\n/* &lt;![CDATA[ */!function(){try{var t=&quot;currentScript&quot;in document?document.currentScript:function(){for(var t=document.getElementsByTagName(&quot;script&quot;),e=t.length;e--;)if(t[e].getAttribute(&quot;cf-hash&quot;))return t[e]}();if(t&amp;&amp;t.previousSibling){var e,r,n,i,c=t.previousSibling,a=c.getAttribute(&quot;data-cfemail&quot;);if(a){for(e=&quot;&quot;,r=parseInt(a.substr(0,2),16),n=2;a.length-n;n+=2)i=parseInt(a.substr(n,2),16)^r,e+=String.fromCharCode(i);e=document.createTextNode(e),c.parentNode.replaceChild(e,c)}}}catch(u){}}();/* ]]&gt; */&lt;/script&gt;\nFormat settings, CABAC                   : Yes\nFormat settings, ReFrames                : 2 frames\nCodec ID                                 : avc1\nCodec ID/Info                            : Advanced Video Coding\nDuration                                 : 1h 18mn\nDuration_FirstFrame                      : -40ms\nBit rate                                 : 1 300 Kbps\nWidth                                    : 1 280 pixels\nHeight                                   : 720 pixels\nDisplay aspect ratio                     : 16:9\nFrame rate mode                          : Variable\nFrame rate                               : 25.000 fps\nMinimum frame rate                       : 12.500 fps\nMaximum frame rate                       : 25.000 fps\nColor space                              : YUV\nChroma subsampling                       : 4:2:0\nBit depth                                : 8 bits\nScan type                                : Progressive\nBits/(Pixel*Frame)                       : 0.056\nStream size                              : 725 MiB (93%)\nWriting library                          : x264 core 112 r1834 a51816a\n\nAudio\n=====================================================================\nID                                       : 2\nFormat                                   : AAC\nFormat/Info                              : Advanced Audio Codec\nFormat profile                           : LC\nCodec ID                                 : 40\nDuration                                 : 1h 18mn\nBit rate mode                            : Variable\nBit rate                                 : 92.9 Kbps\nChannel(s)                               : 2 channels\nChannel positions                        : Front: L R\nSampling rate                            : 48.0 KHz\nCompression mode                         : Lossy\nDelay relative to video                  : 40ms\nStream size                              : 51.9 MiB (7%)","torrent":{"xt":"urn:btih:d6bce3396d549109189f1e3f5d2d2b145abcc195","amp;dn":"004_Enas+vlakas+kai+misos+%281959%29+%28Greek+movie%29.mp4","amp;tr":["udp%3A%2F%2Ftracker.openbittorrent.com%3A80","udp%3A%2F%2Fopen.demonii.com%3A1337","udp%3A%2F%2Ftracker.coppersurfer.tk%3A6969","udp%3A%2F%2Fexodus.desync.com%3A6969"],"infoHash":"d6bce3396d549109189f1e3f5d2d2b145abcc195","infoHashBuffer":{"type":"Buffer","data":[214,188,227,57,109,84,145,9,24,159,30,63,93,45,43,20,90,188,193,149]},"announce":[],"urlList":[]}}